<svg version="1.2" xmlns="http://www.w3.org/2000/svg" viewBox="0 0 290 72" width="290" height="72">
	<title>logo-ec--en-svg</title>
	<style>
		.s0 { fill: #bbbdbf } 
		.s1 { fill: #034da1 } 
		.s2 { fill: #fff100 } 
		.s3 { fill: #626366 } 
		.s4 { fill: #ffffff } 
	</style>
	<g id="Layer">
		<g id="Page-1">
			<g id="Version-2-menu">
				<g id="Site-header">
					<g id="logo-copy">
						<g id="Group-20">
							<g id="Group-18-Copy">
								<path id="Fill-40" class="s0" d="m0 24.5c0 0 39.8-5.2 41-5.4 1.7-0.3 3.3-0.6 4.7-1 3.2-0.9 6.2-2.2 8.8-4 2.5-1.7 4.9-4.2 7.2-6.9 1.5-1.7 3-4 4.5-6.2v-1c-1.7 2.6-3.4 4.8-5.1 6.7q-3.5 3.9-7.2 6.3c-2.5 1.6-5.4 2.9-8.5 3.7-1.4 0.4-2.9 0.6-4.6 0.9-1.1 0.2-2.2 0.3-3.3 0.4-0.5 0-37.5 3.9-37.5 3.9z"/>
								<path id="Fill-41" class="s0" d="m53.4 17.8c-2.5 1.4-5.4 2.5-8.6 3.1-1.4 0.3-2.8 0.5-4.5 0.7q-1.5 0.1-3 0.3c-0.5 0-1.1 0.1-1.6 0.1-12.2 1.2-24.3 2.3-35.7 3.4v2.6c11.4-1.4 23.7-2.9 35.9-4.3 0.5-0.1 1.1-0.1 1.6-0.2 1-0.1 2-0.2 3-0.4 1.7-0.2 3.3-0.5 4.6-0.8 3.3-0.7 6.3-1.9 8.9-3.5 2.6-1.6 4.8-3.7 7.3-6.4 1.5-1.7 3.2-4 4.8-6.2v-1c-1.9 2.5-3.6 4.7-5.4 6.5-2.4 2.7-4.8 4.7-7.3 6.1z"/>
								<path id="Fill-42" class="s0" d="m60.4 17.2c-2.4 2.2-5 4-7.5 5.3-2.5 1.2-5.3 2.1-8.6 2.6-1.4 0.2-2.8 0.4-4.5 0.6l-39.8 3.2v2.6l35.3-3.8 4.6-0.5c1.7-0.2 3.2-0.4 4.6-0.7 3.4-0.6 6.3-1.6 8.9-2.9 2.7-1.4 5.3-3.6 7.8-6 1.7-1.6 3.2-3.7 4.9-5.8v-0.9c-2 2.5-3.8 4.5-5.7 6.3z"/>
								<path id="Fill-43" class="s0" d="m50.8 30.6c-2.3 1.3-4 2.1-7.3 2.4-2 0.2-4 0.3-6 0.4-1 0-1.9 0.1-2.9 0.2-6 0.3-11.9 0.7-17.9 1.1l-16.7 1.2v2.6l16.8-1.6c5.4-0.5 11.7-1.1 17.9-1.6l4.5-0.3c1.7-0.1 3.2-0.3 4.5-0.5 3.4-0.4 6.3-1.1 8.9-2.1 2.8-1 5.4-2.7 8-4.6 2.4-1.7 5.6-5.1 5.6-5.2v-0.9c-2.1 2.1-3.4 3.3-5.7 4.8-2.9 2-7.6 3-9.7 4.1z"/>
								<path id="Fill-44" class="s0" d="m51.6 35.6c-2.5 0.7-5.3 1.2-8.6 1.5-1.3 0.1-2.8 0.2-4.4 0.3l-4.4 0.2c-11 0.5-22 1.1-34.1 1.7v2.6c11.6-0.9 22.9-1.8 34.3-2.6l4.4-0.3c1.7-0.1 3.1-0.2 4.5-0.4 3.4-0.4 6.3-1 8.8-1.8 2.8-0.9 5.6-2.2 8.2-3.9 1.9-1.2 3.9-2.7 5.9-4.5-2.2 1.9-4.3 2.3-6.4 3.6-2.7 1.6-5.4 2.8-8.2 3.6z"/>
								<path id="Fill-45" class="s0" d="m51.2 39.9c-2.5 0.6-5.3 1-8.6 1.2-1.3 0.1-2.7 0.2-4.4 0.2l-4.4 0.2c-11.1 0.4-22.3 0.9-33.8 1.4v2.6c11.4-0.8 22.6-1.5 33.9-2.3l4.4-0.3c1.7-0.1 3.1-0.2 4.4-0.3 3.4-0.3 6.2-0.8 8.8-1.5q4.3-1.2 8.4-3.3c2.1-1.1 4.1-2.4 6.2-4v-1.1c-2.3 1.7-4.5 3-6.7 4.1-2.6 1.4-5.4 2.4-8.2 3.1z"/>
								<path id="Fill-46" class="s0" d="m50.8 44.1c-2.5 0.5-5.3 0.8-8.6 0.9-1.3 0.1-2.6 0.1-4.3 0.2l-37.9 1v2.6l33.6-1.8 4.4-0.2c1.7-0.1 3.1-0.2 4.4-0.3 3.4-0.3 6.1-0.6 8.7-1.2 2.9-0.6 5.8-1.5 8.5-2.7 2.2-0.9 4.3-2 6.6-3.4v-1c-2.4 1.4-4.7 2.5-7 3.4-2.7 1.2-5.5 2-8.4 2.5z"/>
								<path id="Fill-47" class="s0" d="m50.5 48.3c-4.7 0.6-9.4 0.7-14.1 0.8-1.1 0-2.1 0-3.2 0.1l-33.2 0.6v2.6l33.3-1.4c1.1 0 2.1-0.1 3.2-0.1 4.7-0.2 9.5-0.4 14.2-1.1 3-0.5 5.9-1.2 8.5-2.1 2.2-0.7 4.5-1.7 6.8-2.9v-1c-2.4 1.1-4.9 2.1-7.2 2.8-2.5 0.7-5.3 1.4-8.3 1.7z"/>
								<path id="Fill-48" class="s0" d="m50.3 52.6c-4.4 0.4-8.8 0.4-13.2 0.4-1.3 0-2.7 0-4 0-11 0-22 0.1-33.1 0.2v2.6c10.6-0.4 21.9-0.7 33.2-1.1 1.3 0 2.7-0.1 4-0.1 4.3-0.1 8.8-0.2 13.2-0.7 3.1-0.3 5.9-0.8 8.6-1.5 2.3-0.6 4.7-1.4 7.2-2.3v-0.9c-2.5 0.9-5 1.6-7.4 2.2-2.7 0.6-5.5 1-8.5 1.2z"/>
								<path id="Fill-49" class="s0" d="m50.1 56.8c-1.8 0.1-3.8 0.1-6 0.1-0.8 0-1.7 0-2.5 0l-8.6-0.1c-5.9 0-11.7-0.1-17.2-0.1l-15.8 0.1v2.6l15.9-0.4c5.5-0.1 11.3-0.3 17.1-0.4l8.6-0.1c2.4 0 5.5-0.1 8.6-0.3 3.1-0.2 5.9-0.5 8.6-0.9 2.4-0.4 4.9-0.9 7.4-1.5v-0.9c-2.5 0.6-5.1 1.1-7.5 1.4-2.8 0.2-5.5 0.4-8.6 0.5z"/>
								<path id="Fill-50" class="s0" d="m41.5 60.9l-8.6-0.1c-10.9-0.2-21.8-0.4-32.9-0.6v2.6c10.6-0.1 21.8-0.2 32.9-0.3l8.6-0.1c2.9 0 5.7-0.1 8.6-0.2 5.9-0.2 11.1-0.6 16.1-1.3v-0.9c-4.9 0.5-10.2 0.8-16.1 0.9-2.9 0-5.8 0-8.6 0z"/>
								<path id="Fill-51" class="s0" d="m66.1 65.5l-66.1-1.7v2.6h66.1z"/>
								<path id="Fill-52" class="s0" d="m60.2 22c-2.5 2-4.5 3.5-7.5 4.7-2.7 1.1-5.6 1.5-8.8 2-2.1 0.3-4.3 0.7-6.4 0.9-0.9 0.1-1.7 0.1-2.6 0.2l-34.9 2.5v2.6l34.9-3.4 4.5-0.4c1.7-0.2 3.2-0.3 4.6-0.6 3.4-0.5 6.3-1.4 8.9-2.6 2.7-1.2 5.5-3.2 8-5.3 1.7-1.5 3.4-3.3 5.2-5.3v-0.9c-2.2 2.2-4 4.1-5.9 5.6z"/>
								<path id="Fill-53" class="s0" d="m94.2 0c0 0 11.9 18.9 14.1 22.4 2.2 3.5 4.7 6.2 13.5 8.1 8.8 1.9 12.6 2.7 12.6 2.7v0.7c0 0-5.6-1.2-12.8-2.8-7.2-1.6-10.1-2.1-13.4-6.7-2.7-3.8-14-19.9-14-19.9z"/>
								<path id="Fill-54" class="s0" d="m94.2 21.6c0 0 10.8 11.3 14 14.6 3.3 3.5 7.6 4.7 13.5 5.8 5.6 1 12.7 2.2 12.7 2.2v0.6c0 0-6.7-1.1-12.7-2.1-5.9-1-10.1-1.6-13.5-4.7-3-2.8-13.9-13-13.9-13z"/>
								<path id="Fill-55" class="s0" d="m94.2 26.8c0 0 10.3 9.6 14 12.8 3.4 3 6.1 3.9 13.5 5.3 7.4 1.3 12.7 2.1 12.7 2.1v0.7c0 0-6.7-1.1-12.7-2.1-6-1-9.9-1.3-13.5-4.3-4.2-3.4-14-11.4-14-11.4z"/>
								<path id="Fill-56" class="s0" d="m94.2 32.2c0 0 11.8 9.3 14 11 2.2 1.6 5.1 3.5 13.5 4.8 8.4 1.2 12.7 1.8 12.7 1.8v0.7c0 0-7.6-1.1-12.7-1.7-5.1-0.6-9-0.9-13.5-3.9-4.4-2.9-14-9.7-14-9.7z"/>
								<path id="Fill-57" class="s0" d="m94.2 37.4c0 0 11.8 7.9 14 9.1 2.2 1.2 4.9 3.3 13.5 4.4 8.6 1.1 12.7 1.6 12.7 1.6v0.7c0 0-7.1-0.8-12.7-1.4-5.6-0.6-9.4-1.4-13.5-3.7-4.1-2.3-14-8-14-8z"/>
								<path id="Fill-58" class="s0" d="m94.2 42.7c0 0 10.4 5.7 14 7.4 3.9 2 7.3 2.9 13.5 3.7 6.1 0.7 12.7 1.4 12.7 1.4v0.6c0 0-6.1-0.7-12.7-1.3-6.5-0.6-8.8-0.9-13.5-3-4.2-1.9-14-6.4-14-6.4z"/>
								<path id="Fill-59" class="s0" d="m94.2 48c0 0 8.2 3.5 14 5.8 5.7 2.3 10 2.5 13.5 2.8 1.5 0.2 12.6 1.3 12.6 1.3v0.6c0 0-6.6-0.5-12.7-1.1-6-0.5-8.6-0.8-13.5-2.4-4.9-1.6-14-4.8-14-4.8z"/>
								<path id="Fill-60" class="s0" d="m94.2 53.4c0 0 8.3 2.6 14 4.1 5.7 1.5 10.9 2.1 13.5 2.3 2.6 0.2 12.7 1 12.7 1v0.6c0 0-5.7-0.4-12.7-0.9-5.7-0.4-10.2-0.8-13.5-1.6-3.7-0.8-14-3.3-14-3.3z"/>
								<path id="Fill-61" class="s0" d="m94.2 58.7c0 0 6.8 1.2 14 2.4 5.4 0.9 12.7 1.5 13.5 1.5 0.8 0 12.7 0.9 12.7 0.9v0.6c0 0-7.6-0.4-12.7-0.7-5.3-0.3-10.5-0.6-13.5-0.9-6.7-0.7-14-1.6-14-1.6z"/>
								<path id="Fill-62" class="s0" d="m94.2 64.3c0 0 10.7 0.4 14 0.5 3.3 0.1 26.2 1 26.2 1v0.6h-40.2z"/>
								<path id="Fill-63" class="s0" d="m121.7 33.4c-9.7-2.1-11.9-5.6-13.5-7.8-1.6-2.2-13.9-20.2-13.9-20.2v4.1c0.5 0.6 11 14.4 14 18.2 3.3 4.3 8.5 5.3 13.5 6.3 5 1.1 12.7 2.6 12.7 2.6v-0.6c-0.1 0-10.3-2-12.8-2.6z"/>
								<path id="Fill-64" class="s0" d="m121.7 36.3c-8-1.6-11.2-4.1-13.5-7.1-2.3-3.1-13.9-18.3-13.9-18.3v3.8c0.5 0.6 11.1 13.1 13.9 16.4 3.3 3.8 7.9 4.8 13.5 5.8 5.6 1 12.7 2.4 12.7 2.4v-0.6c0 0-8.1-1.5-12.7-2.4z"/>
								<path id="Fill-65" class="s0" d="m121.7 39.2c-8.3-1.6-10-2.9-13.5-6.8-2.2-2.4-13.5-15.7-14-16.3v3.5c0 0 10.5 11.2 13.9 14.6 4.4 4.4 8.6 4.7 13.5 5.6 4.9 0.9 12.7 2.3 12.7 2.3v-0.6c0.1 0-9.3-1.6-12.6-2.3z"/>
								<path id="Fill-66" class="s1" d="m85.4 27.6h-57.9v38.7h57.9z"/>
								<path id="Fill-67" class="s2" d="m57.1 33.1h2l-1.6 1.3 0.6 2-1.6-1.2-1.6 1.2 0.6-2-1.6-1.3h2l0.6-2z"/>
								<path id="Fill-68" class="s2" d="m57.1 58.9h2l-1.6 1.2 0.6 1.9-1.6-1.2-1.6 1.2 0.6-1.9-1.6-1.2h2l0.6-1.9z"/>
								<path id="Fill-69" class="s2" d="m63.5 57.2h2l-1.6 1.2 0.6 1.9-1.6-1.2-1.6 1.2 0.6-1.9-1.6-1.2h2l0.6-1.9z"/>
								<path id="Fill-70" class="s2" d="m63.5 34.8h2l-1.6 1.2 0.6 1.9-1.6-1.2-1.6 1.3 0.7-2-1.6-1.2h2l0.6-1.9z"/>
								<path id="Fill-71" class="s2" d="m68.3 39.6h2l-1.6 1.2 0.6 1.9-1.6-1.2-1.6 1.2 0.6-1.9-1.6-1.2h2l0.6-1.9z"/>
								<path id="Fill-72" class="s2" d="m68.3 52.6h2l-1.6 1.2 0.6 1.9-1.6-1.2-1.6 1.2 0.6-1.9-1.6-1.2h2l0.6-1.9z"/>
								<path id="Fill-73" class="s2" d="m70.1 46h2l-1.6 1.2 0.6 1.9-1.6-1.2-1.6 1.2 0.6-1.9-1.7-1.2h2l0.6-1.9z"/>
								<path id="Fill-74" class="s2" d="m50.5 34.8h2l-1.6 1.2 0.6 1.9-1.5-1.1-1.7 1.2 0.6-1.9-1.6-1.2h2l0.7-1.9z"/>
								<path id="Fill-75" class="s2" d="m45.9 39.6h2l-1.6 1.2 0.6 1.9-1.6-1.2-1.6 1.2 0.6-1.9-1.6-1.2h2l0.6-1.9z"/>
								<path id="Fill-76" class="s2" d="m44.2 46h2l-1.6 1.2 0.6 1.9-1.6-1.2-1.6 1.2 0.6-1.9-1.6-1.2h2l0.6-1.9z"/>
								<path id="Fill-77" class="s2" d="m45.9 52.6h2l-1.6 1.2 0.6 1.9-1.6-1.2-1.6 1.2 0.6-1.9-1.6-1.2h2l0.6-1.9z"/>
								<path id="Fill-78" class="s2" d="m50.6 57.3h2l-1.6 1.2 0.6 1.9-1.6-1.2-1.6 1.2 0.6-1.9-1.6-1.2h2l0.6-1.9z"/>
							</g>
						</g>
					</g>
				</g>
			</g>
		</g>
		<filter id="f0">
			<feFlood flood-color="#ffffff" flood-opacity="1" />
			<feBlend mode="normal" in2="SourceGraphic"/>
			<feComposite in2="SourceAlpha" operator="in" />
		</filter>
		<g id="Layer" filter="url(#f0)">
			<path id="Layer" class="s3" d="m143.4 33.1c0-0.3 0.1-0.4 0.4-0.4h7.4c0.3 0 0.4 0.1 0.4 0.4v1.2c0 0.2-0.1 0.4-0.4 0.4h-5.5v3.5h4.9c0.3 0 0.4 0.1 0.4 0.4v1.2c0 0.2-0.1 0.4-0.4 0.4h-4.9v4h5.6c0.2 0 0.4 0.1 0.4 0.4v1.2c0 0.2-0.1 0.4-0.4 0.4h-7.5c-0.3 0-0.4-0.1-0.4-0.4z"/>
			<path id="Layer" class="s3" d="m161.8 46.1h-1.4c-0.1 0-0.2 0-0.3-0.1-0.1-0.1-0.1-0.2-0.1-0.3v-0.7c-0.2 0.1-0.4 0.3-0.7 0.4-0.3 0.1-0.5 0.3-0.8 0.4q-0.5 0.2-0.9 0.3c-0.3 0.1-0.6 0.1-0.9 0.1-0.7 0-1.2-0.1-1.6-0.3-0.4-0.2-0.7-0.4-0.9-0.8-0.2-0.3-0.3-0.7-0.4-1.2-0.1-0.5-0.1-0.9-0.1-1.5v-5.9c0-0.3 0.1-0.4 0.4-0.4h1.5c0.2 0 0.4 0.1 0.4 0.4v5.6c0 0.3 0 0.6 0.1 0.8 0 0.2 0.1 0.4 0.2 0.6 0.1 0.2 0.3 0.3 0.4 0.4 0.1 0.1 0.4 0.1 0.7 0.1 0.2 0 0.4 0 0.7-0.1 0.3-0.1 0.5-0.2 0.8-0.3 0.3-0.1 0.5-0.2 0.7-0.3 0.2-0.1 0.4-0.2 0.5-0.3v-6.7c0-0.1 0-0.2 0.1-0.3 0.1-0.1 0.2-0.1 0.3-0.1h1.4c0.3 0 0.4 0.1 0.4 0.4v9.1c-0.1 0.5-0.2 0.7-0.5 0.7z"/>
			<path id="Layer" class="s3" d="m166.9 45.7c0 0.3-0.1 0.4-0.4 0.4h-1.5c-0.3 0-0.4-0.1-0.4-0.4v-9.1c0-0.3 0.1-0.4 0.4-0.4h1.4c0.3 0 0.4 0.1 0.4 0.4v0.9c0.1-0.1 0.3-0.3 0.6-0.4 0.2-0.2 0.5-0.3 0.8-0.4 0.3-0.1 0.6-0.2 0.8-0.4 0.3-0.1 0.5-0.2 0.8-0.2q0.2 0 0.3 0c0.1 0 0.1 0.1 0.2 0.3l0.1 1.3c0 0.1 0 0.3 0 0.3 0 0.1-0.1 0.1-0.4 0.2-0.3 0.1-0.6 0.1-0.9 0.2-0.3 0.1-0.6 0.2-0.9 0.2-0.3 0.1-0.6 0.2-0.8 0.3-0.3 0.1-0.5 0.2-0.6 0.2v6.6z"/>
			<path id="Layer" fill-rule="evenodd" class="s3" d="m180.2 41c0 0.6 0 1.2-0.1 1.8-0.1 0.6-0.3 1.2-0.6 1.7-0.3 0.5-0.7 0.9-1.3 1.3-0.6 0.3-1.4 0.5-2.4 0.5-1 0-1.8-0.2-2.4-0.5-0.6-0.3-1-0.7-1.3-1.3-0.3-0.5-0.5-1.1-0.5-1.7-0.1-0.6-0.1-1.2-0.1-1.8 0-0.5 0-1 0.1-1.6 0.1-0.6 0.3-1.1 0.6-1.6 0.3-0.5 0.7-0.9 1.3-1.3 0.6-0.3 1.3-0.5 2.3-0.5 1 0 1.8 0.1 2.3 0.4 0.6 0.3 1 0.7 1.3 1.2 0.3 0.5 0.5 1 0.6 1.6 0.1 0.6 0.2 1.2 0.2 1.8zm-2.3 0.1c0-0.5 0-1-0.1-1.4-0.1-0.4-0.2-0.7-0.3-1-0.2-0.3-0.4-0.5-0.7-0.6-0.3-0.1-0.6-0.2-1.1-0.2-0.4 0-0.8 0.1-1 0.2-0.2 0.1-0.5 0.3-0.6 0.6-0.2 0.3-0.3 0.6-0.3 1-0.1 0.4-0.1 0.9-0.1 1.4 0 0.5 0 1 0.1 1.4 0.1 0.4 0.2 0.7 0.3 1 0.1 0.3 0.4 0.5 0.6 0.6 0.2 0.1 0.6 0.2 1 0.2 0.5 0 0.8-0.1 1.1-0.2 0.3-0.1 0.5-0.3 0.7-0.6 0.2-0.3 0.3-0.6 0.3-1 0.1-0.4 0.1-0.8 0.1-1.4z"/>
			<path id="Layer" fill-rule="evenodd" class="s3" d="m190.8 41.1c0 0.8-0.1 1.5-0.2 2.2-0.1 0.6-0.3 1.2-0.6 1.6-0.3 0.4-0.7 0.8-1.2 1-0.5 0.2-1.2 0.3-2 0.3-0.3 0-0.7 0-1.2-0.1-0.4-0.1-0.9-0.2-1.4-0.3v3.5c0 0.1 0 0.2-0.1 0.3-0.1 0.1-0.2 0.1-0.3 0.1h-1.4c-0.2 0-0.3 0-0.3-0.1 0-0.1-0.1-0.2-0.1-0.3v-12.7c0-0.3 0.1-0.4 0.4-0.4h1.4c0.1 0 0.2 0 0.3 0.1 0.1 0.1 0.1 0.2 0.1 0.3v0.6h0.1c0.2-0.1 0.4-0.2 0.6-0.4 0.2-0.1 0.5-0.3 0.8-0.4q0.5-0.2 0.9-0.3c0.3-0.1 0.6-0.1 0.9-0.1 0.7 0 1.2 0.1 1.6 0.4 0.4 0.2 0.8 0.6 1 1 0.2 0.4 0.4 1 0.5 1.6 0.2 0.6 0.2 1.3 0.2 2.1zm-2.3 0c0-0.6 0-1.2-0.1-1.5-0.1-0.3-0.2-0.7-0.3-0.9-0.1-0.2-0.3-0.4-0.5-0.4-0.2-0.1-0.4-0.1-0.7-0.1-0.2 0-0.4 0-0.7 0.1-0.3 0.1-0.5 0.1-0.8 0.2-0.2 0.1-0.5 0.2-0.7 0.3q-0.3 0.2-0.6 0.3v5q0.8 0.2 1.2 0.3c0.3 0.1 0.7 0.1 1.1 0.1 0.4 0 0.7-0.1 0.9-0.2 0.2-0.1 0.4-0.3 0.6-0.5 0.2-0.3 0.3-0.6 0.3-1 0.3-0.6 0.3-1.1 0.3-1.7z"/>
			<path id="Layer" fill-rule="evenodd" class="s3" d="m194.7 41.8q0 0 0-0.1zm0.2 1.2c0.1 0.3 0.3 0.6 0.5 0.8 0.2 0.2 0.4 0.3 0.7 0.4 0.3 0.1 0.6 0.1 1.1 0.1 0.4 0 0.8 0 1.3-0.1 0.5-0.1 0.9-0.1 1.3-0.1 0.2 0 0.3 0 0.4 0 0.1 0 0.1 0.1 0.2 0.3l0.1 0.7c0 0.1 0 0.3 0 0.4q0 0.2-0.3 0.3c-0.2 0.1-0.4 0.2-0.7 0.2-0.3 0-0.5 0.1-0.8 0.2-0.3 0.1-0.6 0.1-0.9 0.1-0.3 0-0.6 0-0.8 0-1 0-1.7-0.1-2.3-0.4-0.6-0.3-1-0.7-1.3-1.1-0.3-0.5-0.5-1-0.6-1.6-0.1-0.6-0.2-1.2-0.2-1.9 0-0.5 0-1 0.1-1.6 0.1-0.6 0.3-1.2 0.6-1.7 0.3-0.5 0.7-1 1.3-1.3 0.6-0.4 1.3-0.5 2.3-0.5 0.9 0 1.6 0.1 2.2 0.4 0.6 0.3 1 0.6 1.3 1 0.3 0.4 0.5 0.9 0.6 1.4 0.1 0.5 0.2 1.1 0.2 1.6 0 0.4 0 0.7-0.2 0.9-0.2 0.2-0.4 0.3-0.8 0.3h-5.5c0 0.5 0.1 0.8 0.2 1.2zm1.8-5.2c-0.4 0-0.7 0.1-0.9 0.2-0.2 0.1-0.4 0.3-0.6 0.5-0.2 0.2-0.3 0.5-0.3 0.8-0.1 0.3-0.1 0.6-0.1 1h4c0-0.3 0-0.6-0.1-0.9-0.1-0.3-0.2-0.5-0.3-0.8-0.1-0.3-0.3-0.4-0.6-0.5-0.4-0.2-0.7-0.3-1.1-0.3z"/>
			<path id="Layer" fill-rule="evenodd" class="s3" d="m209 44.9c-0.5 0.4-1.1 0.7-1.7 0.9-0.6 0.2-1.3 0.4-2 0.4-0.5 0-1-0.1-1.3-0.2-0.4-0.1-0.6-0.3-0.8-0.6-0.2-0.2-0.4-0.5-0.4-0.9-0.1-0.3-0.1-0.7-0.1-1.2 0-1.2 0.3-2 0.9-2.6 0.6-0.5 1.6-0.8 2.8-0.8h2.6v-0.5c0-0.3 0-0.5-0.1-0.8-0.1-0.2-0.2-0.4-0.3-0.5q-0.3-0.2-0.6-0.3c-0.3-0.1-0.6-0.1-1-0.1q-0.3 0-0.6 0c-0.2 0-0.5 0-0.7 0-0.2 0-0.5 0-0.7 0.1-0.2 0-0.5 0-0.7 0.1-0.2 0-0.3 0-0.4 0-0.1 0-0.1-0.1-0.2-0.3l-0.2-0.7q0-0.1 0-0.3c0.1-0.1 0.2-0.2 0.4-0.3 0.2-0.1 0.5-0.1 0.8-0.2 0.3-0.1 0.6-0.1 0.9-0.1 0.3 0 0.6-0.1 0.9-0.1 0.3 0 0.6 0 0.8 0q1.4 0 2.1 0.3c0.5 0.2 0.9 0.4 1.2 0.7 0.3 0.3 0.4 0.7 0.5 1.2 0.1 0.5 0.1 1 0.1 1.5 0 0.2 0 4.3 0 4.4 0 0.1 0.1 0.2 0.1 0.3 0 0.1 0.1 0.1 0.2 0.1 0.1 0 0.2 0 0.4 0.1 0.1 0 0.2 0 0.3 0.1 0.1 0 0.1 0.1 0.1 0.2v0.8c0 0.2-0.2 0.4-0.5 0.4-0.2 0-0.3 0-0.5 0.1-0.2 0-0.3 0-0.5 0-0.5 0-0.8-0.1-1.1-0.3-0.4-0.1-0.6-0.4-0.7-0.9zm-2.5-3.3c-0.5 0-0.9 0.1-1.2 0.4-0.3 0.2-0.4 0.7-0.4 1.3q0 0.6 0.3 0.9c0.2 0.2 0.5 0.3 1 0.3 0.2 0 0.4 0 0.7-0.1 0.3-0.1 0.5-0.1 0.8-0.2 0.3-0.1 0.5-0.2 0.7-0.3 0.2-0.1 0.5-0.2 0.6-0.3v-2z"/>
			<path id="Layer" class="s3" d="m222.1 46c-0.1 0.1-0.2 0.1-0.3 0.1h-1.5c-0.3 0-0.4-0.1-0.4-0.4v-5.6c0-0.6-0.1-1.1-0.3-1.4-0.2-0.4-0.6-0.5-1.2-0.5-0.2 0-0.4 0-0.7 0.1-0.3 0.1-0.5 0.2-0.8 0.3-0.3 0.1-0.5 0.2-0.7 0.3-0.2 0.1-0.4 0.2-0.5 0.3v6.7c0 0.3-0.1 0.4-0.4 0.4h-1.4c-0.3 0-0.4-0.1-0.4-0.4v-9.1c0-0.3 0.1-0.4 0.4-0.4h1.4c0.3 0 0.4 0.1 0.4 0.4v0.6c0.2-0.1 0.4-0.3 0.7-0.4 0.3-0.1 0.5-0.3 0.8-0.4q0.4-0.2 0.9-0.3c0.3-0.1 0.6-0.1 0.9-0.1 0.7 0 1.2 0.1 1.6 0.3 0.4 0.2 0.7 0.5 0.9 0.8 0.2 0.3 0.3 0.8 0.4 1.2 0.1 0.5 0.1 0.9 0.1 1.5v5.8c0.1 0 0.1 0.1 0.1 0.2z"/>
		</g>
		<filter id="f1">
			<feFlood flood-color="#ffffff" flood-opacity="1" />
			<feBlend mode="normal" in2="SourceGraphic"/>
			<feComposite in2="SourceAlpha" operator="in" />
		</filter>
		<g id="Layer" style="mix-blend-mode: lighten" filter="url(#f1)">
			<path id="Layer" class="s3" d="m143.2 59.8c0-0.9 0.1-1.7 0.2-2.5 0.1-0.8 0.4-1.6 0.8-2.2 0.4-0.6 0.9-1.2 1.6-1.6 0.7-0.4 1.6-0.6 2.8-0.6 0.2 0 0.5 0 0.8 0 0.3 0 0.6 0.1 1 0.1 0.3 0 0.7 0.1 1 0.2q0.5 0.1 0.9 0.3c0.2 0.1 0.3 0.1 0.3 0.2 0 0.1 0.1 0.2 0.1 0.4l-0.2 0.8c0 0.1-0.1 0.2-0.1 0.3-0.1 0.1-0.2 0.1-0.4 0-0.5-0.1-1-0.1-1.6-0.2-0.6-0.1-1.1-0.1-1.6-0.1-0.7 0-1.2 0.1-1.6 0.4-0.4 0.3-0.7 0.6-1 1-0.2 0.4-0.4 1-0.4 1.5 0 0.5-0.1 1.2-0.1 1.9 0 0.7 0 1.3 0.1 1.8 0.1 0.6 0.2 1.1 0.5 1.5 0.2 0.4 0.5 0.8 1 1 0.4 0.2 0.9 0.4 1.6 0.4 0.6 0 1.1 0 1.6-0.1 0.5-0.1 1-0.1 1.6-0.2 0.2 0 0.3 0 0.4 0 0.1 0.1 0.1 0.1 0.2 0.3l0.2 0.8q0.2 0.4-0.3 0.6-0.3 0.1-0.9 0.3c-0.3 0.1-0.7 0.1-1 0.2-0.3 0.1-0.7 0.1-1 0.1q-0.4 0-0.9 0-1.7 0-2.7-0.6c-0.7-0.4-1.3-0.9-1.6-1.5-0.4-0.6-0.7-1.3-0.8-2.1-0.4-0.7-0.5-1.5-0.5-2.4z"/>
			<path id="Layer" fill-rule="evenodd" class="s3" d="m162.9 61.3c0 0.6 0 1.2-0.1 1.8-0.1 0.6-0.3 1.2-0.6 1.7-0.3 0.5-0.7 0.9-1.3 1.3-0.6 0.3-1.4 0.5-2.4 0.5-1 0-1.8-0.2-2.4-0.5-0.6-0.3-1-0.7-1.3-1.3-0.3-0.5-0.5-1.1-0.5-1.7-0.1-0.6-0.1-1.2-0.1-1.8 0-0.5 0-1 0.1-1.6 0.1-0.6 0.3-1.1 0.6-1.6 0.3-0.5 0.7-0.9 1.3-1.3 0.6-0.3 1.3-0.5 2.3-0.5 1 0 1.8 0.1 2.3 0.4 0.6 0.3 1 0.7 1.3 1.2 0.3 0.5 0.5 1 0.6 1.6 0.1 0.6 0.2 1.2 0.2 1.8zm-2.3 0.1c0-0.5 0-1-0.1-1.4-0.1-0.4-0.2-0.7-0.3-1-0.2-0.3-0.4-0.5-0.7-0.6-0.3-0.1-0.6-0.2-1.1-0.2-0.4 0-0.8 0.1-1 0.2-0.2 0.1-0.5 0.3-0.6 0.6-0.2 0.3-0.3 0.6-0.3 1-0.1 0.4-0.1 0.9-0.1 1.4 0 0.5 0 1 0.1 1.4 0.1 0.4 0.2 0.7 0.3 1 0.1 0.3 0.4 0.5 0.6 0.6 0.2 0.1 0.6 0.2 1 0.2 0.5 0 0.8-0.1 1.1-0.2 0.3-0.1 0.5-0.3 0.7-0.6 0.2-0.3 0.3-0.6 0.3-1 0-0.4 0.1-0.8 0.1-1.4z"/>
			<path id="Layer" class="s3" d="m179.2 66.3c0 0.1-0.1 0.1-0.3 0.1h-1.4c-0.3 0-0.4-0.1-0.4-0.4v-5.7c0-0.7-0.1-1.3-0.3-1.5-0.2-0.3-0.6-0.4-1.1-0.4-0.2 0-0.4 0-0.6 0.1-0.2 0.1-0.5 0.1-0.7 0.2-0.2 0.1-0.5 0.2-0.7 0.3q-0.3 0.1-0.6 0.3c0 0.1 0 0.2 0 0.4q0 0.3 0 0.6v5.7c0 0.1 0 0.2-0.1 0.3-0.1 0.1-0.2 0.1-0.3 0.1h-1.5c-0.2 0-0.3-0.1-0.3-0.4v-5.8c0-0.6-0.1-1.1-0.3-1.4-0.2-0.3-0.5-0.4-1-0.4-0.2 0-0.4 0-0.6 0.1-0.2 0.1-0.4 0.1-0.7 0.2-0.2 0.1-0.5 0.2-0.7 0.3q-0.3 0.1-0.6 0.3v6.7c0 0.3-0.1 0.4-0.4 0.4h-1.4c-0.2 0-0.4-0.1-0.4-0.4v-9.1c0-0.3 0.1-0.4 0.4-0.4h1.4c0.3 0 0.4 0.1 0.4 0.4v0.6c0.2-0.1 0.4-0.3 0.6-0.4 0.2-0.1 0.5-0.3 0.7-0.4 0.2-0.1 0.5-0.2 0.8-0.3 0.3-0.1 0.5-0.1 0.8-0.1 0.6 0 1.1 0.1 1.6 0.3 0.5 0.2 0.9 0.6 1.2 1.1 0.5-0.4 1.1-0.7 1.7-1 0.6-0.3 1.2-0.4 1.9-0.4 0.7 0 1.2 0.1 1.6 0.3 0.4 0.2 0.7 0.5 0.9 0.8 0.2 0.3 0.3 0.7 0.4 1.2 0.1 0.5 0.1 0.9 0.1 1.4v6c-0.1 0.1-0.1 0.2-0.1 0.3z"/>
			<path id="Layer" class="s3" d="m195.7 66.3c0 0.1-0.1 0.1-0.3 0.1h-1.4c-0.3 0-0.4-0.1-0.4-0.4v-5.7c0-0.7-0.1-1.3-0.3-1.5-0.2-0.3-0.6-0.4-1.1-0.4-0.2 0-0.4 0-0.6 0.1-0.2 0.1-0.5 0.1-0.7 0.2-0.2 0.1-0.5 0.2-0.7 0.3q-0.3 0.1-0.6 0.3c0 0.1 0 0.2 0 0.4q0 0.3 0 0.6v5.7c0 0.1 0 0.2-0.1 0.3-0.1 0.1-0.2 0.1-0.3 0.1h-1.5c-0.2 0-0.3-0.1-0.3-0.4v-5.8c0-0.6-0.1-1.1-0.3-1.4-0.2-0.3-0.5-0.4-1-0.4-0.2 0-0.4 0-0.6 0.1-0.2 0.1-0.4 0.1-0.7 0.2-0.3 0.1-0.5 0.2-0.7 0.3q-0.3 0.1-0.6 0.3v6.7c0 0.3-0.1 0.4-0.4 0.4h-1.4c-0.2 0-0.4-0.1-0.4-0.4v-9.1c0-0.3 0.1-0.4 0.4-0.4h1.4c0.3 0 0.4 0.1 0.4 0.4v0.6c0.2-0.1 0.4-0.3 0.6-0.4 0.2-0.1 0.5-0.3 0.7-0.4 0.3-0.1 0.5-0.2 0.8-0.3 0.3-0.1 0.5-0.1 0.8-0.1 0.6 0 1.1 0.1 1.6 0.3 0.5 0.2 0.9 0.6 1.2 1.1 0.5-0.4 1.1-0.7 1.7-1 0.6-0.3 1.2-0.4 1.9-0.4 0.7 0 1.2 0.1 1.6 0.3 0.4 0.2 0.7 0.5 0.9 0.8 0.2 0.3 0.3 0.7 0.4 1.2 0.1 0.5 0.1 0.9 0.1 1.4v6c0 0.1-0.1 0.2-0.1 0.3z"/>
			<path id="Layer" class="s3" d="m200.5 53.9c0 0.2 0 0.3 0 0.5 0 0.1-0.1 0.3-0.2 0.4-0.1 0.1-0.2 0.2-0.4 0.3-0.2 0.1-0.4 0.1-0.6 0.1-0.3 0-0.5 0-0.6-0.1-0.2-0.1-0.3-0.2-0.4-0.3-0.1-0.1-0.1-0.2-0.2-0.4 0-0.1 0-0.3 0-0.4 0-0.3 0.1-0.6 0.2-0.8 0.2-0.2 0.5-0.3 1-0.3 0.5 0 0.8 0.1 1 0.3 0.1 0.1 0.2 0.4 0.2 0.7zm-0.1 12.1c0 0.1 0 0.2-0.1 0.3 0 0.1-0.1 0.1-0.3 0.1h-1.4c-0.3 0-0.4-0.1-0.4-0.4v-9.1c0-0.3 0.1-0.4 0.4-0.4h1.4c0.1 0 0.2 0 0.3 0.1 0 0.1 0.1 0.2 0.1 0.3z"/>
			<path id="Layer" class="s3" d="m210.2 63.4q0 0.9-0.3 1.5c-0.2 0.4-0.5 0.7-0.9 1-0.4 0.2-0.8 0.4-1.3 0.5-0.5 0.1-1 0.2-1.5 0.2-0.5 0-1.1 0-1.6-0.1q-0.9-0.1-1.5-0.3c-0.2-0.1-0.3-0.2-0.4-0.3-0.1-0.1-0.1-0.2 0-0.4l0.1-0.7c0-0.2 0.1-0.3 0.2-0.3 0.1 0 0.2 0 0.4 0 0.2 0 0.5 0.1 0.7 0.1 0.3 0 0.5 0 0.8 0.1 0.3 0 0.5 0 0.7 0.1q0.3 0 0.6 0c0.6 0 1.1-0.1 1.4-0.3 0.3-0.2 0.4-0.5 0.4-0.9 0-0.2 0-0.4-0.1-0.6-0.1-0.2-0.1-0.3-0.3-0.4-0.2-0.1-0.3-0.2-0.5-0.2-0.2-0.1-0.5-0.1-0.8-0.2-0.5-0.1-1-0.2-1.4-0.3-0.4-0.1-0.8-0.3-1.2-0.5-0.3-0.2-0.6-0.5-0.8-0.8-0.2-0.3-0.3-0.8-0.3-1.3 0-1 0.3-1.7 1-2.3 0.7-0.5 1.6-0.8 2.7-0.8 0.2 0 0.4 0 0.7 0 0.3 0 0.5 0 0.8 0.1 0.3 0 0.5 0.1 0.8 0.1 0.3 0 0.5 0.1 0.7 0.2 0.3 0.1 0.5 0.3 0.4 0.6l-0.2 0.7c0 0.1-0.1 0.2-0.2 0.3-0.1 0-0.2 0-0.4 0-0.4-0.1-0.9-0.1-1.4-0.2-0.5 0-0.9-0.1-1.3-0.1-0.6 0-1.1 0.1-1.3 0.3q-0.3 0.3-0.3 0.9c0 0.4 0.1 0.6 0.4 0.8 0.3 0.1 0.7 0.2 1.3 0.3 0.5 0.1 0.9 0.2 1.4 0.3 0.5 0.1 0.8 0.3 1.2 0.5 0.3 0.2 0.6 0.5 0.8 0.9 0.4 0.4 0.5 0.9 0.5 1.5z"/>
			<path id="Layer" class="s3" d="m219.4 63.4q0 0.9-0.3 1.5c-0.2 0.4-0.5 0.7-0.9 1-0.4 0.2-0.8 0.4-1.3 0.5-0.5 0.1-1 0.2-1.5 0.2-0.5 0-1.1 0-1.6-0.1q-0.9-0.1-1.5-0.3c-0.2-0.1-0.3-0.2-0.4-0.3-0.1-0.1-0.1-0.2 0-0.4l0.1-0.7c0-0.2 0.1-0.3 0.2-0.3 0.1 0 0.2 0 0.4 0 0.2 0 0.5 0.1 0.7 0.1 0.3 0 0.5 0 0.8 0.1 0.3 0 0.5 0 0.7 0.1q0.3 0 0.6 0c0.6 0 1.1-0.1 1.4-0.3 0.3-0.2 0.4-0.5 0.4-0.9 0-0.2 0-0.4-0.1-0.6-0.1-0.2-0.1-0.3-0.3-0.4-0.2-0.1-0.3-0.2-0.5-0.2-0.2-0.1-0.5-0.1-0.8-0.2-0.5-0.1-1-0.2-1.4-0.3-0.4-0.1-0.8-0.3-1.2-0.5-0.3-0.2-0.6-0.5-0.8-0.8-0.2-0.3-0.3-0.8-0.3-1.3 0-1 0.3-1.7 1-2.3 0.7-0.5 1.6-0.8 2.7-0.8 0.2 0 0.4 0 0.7 0 0.3 0 0.5 0 0.8 0.1 0.3 0 0.5 0.1 0.8 0.1 0.3 0 0.5 0.1 0.7 0.2 0.3 0.1 0.5 0.3 0.4 0.6l-0.2 0.7c0 0.1-0.1 0.2-0.2 0.3-0.1 0-0.2 0-0.4 0-0.4-0.1-0.9-0.1-1.4-0.2-0.5 0-0.9-0.1-1.3-0.1-0.6 0-1.1 0.1-1.3 0.3q-0.3 0.3-0.3 0.9c0 0.4 0.1 0.6 0.4 0.8 0.3 0.1 0.7 0.2 1.3 0.3 0.5 0.1 0.9 0.2 1.4 0.3 0.5 0.1 0.8 0.3 1.2 0.5 0.3 0.2 0.6 0.5 0.8 0.9 0.4 0.4 0.5 0.9 0.5 1.5z"/>
			<path id="Layer" class="s3" d="m223.9 53.9c0 0.2 0 0.3 0 0.5 0 0.1-0.1 0.3-0.2 0.4-0.1 0.1-0.2 0.2-0.4 0.3-0.2 0.1-0.4 0.1-0.6 0.1-0.3 0-0.5 0-0.6-0.1-0.2-0.1-0.3-0.2-0.4-0.3-0.1-0.1-0.1-0.2-0.2-0.4 0-0.1 0-0.3 0-0.4 0-0.3 0.1-0.6 0.2-0.8 0.2-0.2 0.5-0.3 1-0.3 0.5 0 0.8 0.1 1 0.3 0.1 0.1 0.2 0.4 0.2 0.7zm-0.1 12.1c0 0.1 0 0.2-0.1 0.3 0 0.1-0.1 0.1-0.3 0.1h-1.4c-0.3 0-0.4-0.1-0.4-0.4v-9.1c0-0.3 0.1-0.4 0.4-0.4h1.4c0.1 0 0.2 0 0.3 0.1 0 0.1 0.1 0.2 0.1 0.3z"/>
			<path id="Layer" fill-rule="evenodd" class="s3" d="m234.8 61.3c0 0.6 0 1.2-0.1 1.8-0.1 0.6-0.3 1.2-0.6 1.7-0.3 0.5-0.7 0.9-1.3 1.3-0.6 0.3-1.4 0.5-2.4 0.5-1 0-1.8-0.2-2.4-0.5-0.6-0.3-1-0.7-1.3-1.3-0.3-0.5-0.5-1.1-0.5-1.7-0.1-0.6-0.1-1.2-0.1-1.8 0-0.5 0-1 0.1-1.6 0.1-0.6 0.3-1.1 0.6-1.6 0.3-0.5 0.7-0.9 1.3-1.3 0.6-0.3 1.3-0.5 2.3-0.5 1 0 1.8 0.1 2.3 0.4 0.6 0.3 1 0.7 1.3 1.2 0.3 0.5 0.5 1 0.6 1.6 0.1 0.6 0.2 1.2 0.2 1.8zm-2.3 0.1c0-0.5 0-1-0.1-1.4-0.1-0.4-0.2-0.7-0.3-1-0.2-0.3-0.4-0.5-0.7-0.6-0.3-0.1-0.6-0.2-1.1-0.2-0.4 0-0.8 0.1-1 0.2-0.2 0.1-0.5 0.3-0.6 0.6-0.2 0.3-0.3 0.6-0.3 1-0.1 0.4-0.1 0.9-0.1 1.4 0 0.5 0 1 0.1 1.4 0.1 0.4 0.2 0.7 0.3 1 0.1 0.3 0.4 0.5 0.6 0.6 0.2 0.1 0.6 0.2 1 0.2 0.5 0 0.8-0.1 1.1-0.2 0.3-0.1 0.5-0.3 0.7-0.6 0.2-0.3 0.3-0.6 0.3-1 0-0.4 0.1-0.8 0.1-1.4z"/>
			<path id="Layer" class="s3" d="m245.2 66.3c-0.1 0.1-0.2 0.1-0.3 0.1h-1.5c-0.3 0-0.4-0.1-0.4-0.4v-5.6c0-0.6-0.1-1.1-0.3-1.4-0.2-0.4-0.6-0.5-1.2-0.5-0.2 0-0.4 0-0.7 0.1-0.3 0.1-0.5 0.2-0.8 0.3-0.3 0.1-0.5 0.2-0.7 0.3-0.2 0.1-0.4 0.2-0.5 0.3v6.5c0 0.3-0.1 0.4-0.4 0.4h-1.4c-0.3 0-0.4-0.1-0.4-0.4v-9.1c0-0.3 0.1-0.4 0.4-0.4h1.4c0.3 0 0.4 0.1 0.4 0.4v0.6c0.2-0.1 0.4-0.3 0.7-0.4 0.3-0.1 0.5-0.3 0.8-0.4q0.5-0.2 0.9-0.3c0.3-0.1 0.6-0.1 0.9-0.1 0.7 0 1.2 0.1 1.6 0.3 0.4 0.2 0.7 0.5 0.9 0.8 0.2 0.3 0.3 0.8 0.4 1.2 0.1 0.5 0.1 0.9 0.1 1.5v5.9c0.2 0.1 0.1 0.2 0.1 0.3z"/>
		</g>
		<path id="Layer" class="s4" d="m254.2 28h3.3v38.7h-3.3z"/>
	</g>
</svg>